<svg width="215" height="47" viewBox="0 0 215 47" fill="none" xmlns="http://www.w3.org/2000/svg">
<path d="M53.1474 46C51.1709 46 49.4838 45.3045 48.0862 43.9136C46.6953 42.5161 45.9999 40.829 45.9999 38.8524C45.9999 36.8293 46.6953 35.1223 48.0862 33.7314C49.4838 32.3337 51.1709 31.6349 53.1474 31.6349C55.1173 31.6349 56.7978 32.3337 58.1887 33.7314C59.5862 35.1223 60.285 36.8059 60.285 38.7825C60.285 40.8057 59.5862 42.5161 58.1887 43.9136C56.7978 45.3045 55.1173 46 53.1474 46ZM53.2073 43.7738C54.5916 43.7738 55.7762 43.2847 56.7612 42.3064C57.7462 41.3214 58.2386 40.1369 58.2386 38.7526C58.2386 37.3617 57.7462 36.1771 56.7612 35.1988C55.7762 34.2138 54.5916 33.7213 53.2073 33.7213C51.8164 33.7213 50.6285 34.2138 49.6435 35.1988C48.6652 36.1771 48.1761 37.3617 48.1761 38.7526C48.1761 40.1369 48.6652 41.3214 49.6435 42.3064C50.6285 43.2847 51.8164 43.7738 53.2073 43.7738ZM77.7647 46V31.6449C77.2056 31.6449 76.7298 31.8413 76.3371 32.2339C76.1708 32.407 76.0376 32.6032 75.9378 32.8229L75.9179 32.8129L69.7786 42.7956L63.6292 32.8129L63.6193 32.8229C63.5194 32.6032 63.3829 32.407 63.2099 32.2339C62.8173 31.8413 62.3448 31.6449 61.7925 31.6449V46C62.3448 46 62.8173 45.8036 63.2099 45.411C63.6026 45.0184 63.7989 44.5459 63.7989 43.9935V36.9358L68.1514 43.9935C68.2978 44.2264 68.4741 44.4194 68.6804 44.5725C69.0132 44.8054 69.3792 44.9319 69.7786 44.9518C70.1778 44.9319 70.5406 44.8054 70.8666 44.5725C71.0796 44.4194 71.2593 44.2264 71.4057 43.9935L75.7482 36.9358V43.9935C75.7482 44.5459 75.9444 45.0184 76.3371 45.411C76.7298 45.8036 77.2056 46 77.7647 46ZM73.3623 31.7947V31.7648H73.3424L73.3623 31.7947ZM85.5812 38.6927C86.1332 38.6927 86.606 38.4964 86.9987 38.1037C87.3914 37.711 87.5873 37.2352 87.5873 36.6762H83.7343C83.1819 36.6762 82.7094 36.8726 82.3167 37.2652C81.9241 37.6578 81.7278 38.1336 81.7278 38.6927H85.5812ZM88.8157 46H79.3419H79.2621V31.6449H88.8157C88.8157 32.1973 88.6189 32.6699 88.2262 33.0625C87.8335 33.4551 87.3616 33.6515 86.8087 33.6515H81.2786V43.9835H86.8087C87.3616 43.9835 87.8335 44.1798 88.2262 44.5725C88.6189 44.9652 88.8157 45.441 88.8157 46ZM100.855 46V33.6515H95.3937C95.3937 33.0991 95.5905 32.6266 95.9832 32.2339C96.3759 31.8413 96.8512 31.6449 97.4109 31.6449H108.332C108.332 32.1973 108.132 32.6699 107.733 33.0625C107.34 33.4551 106.867 33.6515 106.315 33.6515H102.871V43.9835C102.871 44.5426 102.674 45.0184 102.282 45.411C101.889 45.8036 101.414 46 100.855 46ZM120.401 46.01C120.221 46.01 119.954 45.96 119.602 45.8602C119.256 45.7604 118.936 45.4643 118.643 44.9718L115.899 40.0703H113.243C113.243 39.5179 113.439 39.0454 113.832 38.6528C114.225 38.2601 114.7 38.0638 115.26 38.0638H117.176C117.782 38.0638 118.297 37.8508 118.723 37.4249C119.156 36.9923 119.372 36.4699 119.372 35.8577C119.372 35.252 119.156 34.7362 118.723 34.3103C118.297 33.8777 117.782 33.6614 117.176 33.6614H111.846V43.9935C111.846 44.5459 111.645 45.0184 111.247 45.411C110.854 45.8036 110.381 46 109.829 46V31.6449H117.176C118.334 31.6449 119.326 32.0576 120.151 32.8828C120.977 33.708 121.389 34.6997 121.389 35.8577C121.389 37.0222 120.977 38.0172 120.151 38.8425C119.592 39.3948 118.92 39.7675 118.135 39.9605L121.389 45.7504C121.063 45.9235 120.733 46.01 120.401 46.01ZM127.997 46C129.162 46 130.194 45.654 131.092 44.9618C132.43 43.9103 133.098 42.556 133.098 40.8988V31.6449C132.546 31.6449 132.074 31.8413 131.681 32.2339C131.288 32.6266 131.092 33.1024 131.092 33.6614V40.8988C131.092 41.7507 130.789 42.4795 130.183 43.085C129.578 43.6907 128.849 43.9935 127.997 43.9935C127.139 43.9935 126.407 43.6907 125.801 43.085C125.203 42.4795 124.903 41.7507 124.903 40.8988V33.6614C124.903 33.1024 124.707 32.6266 124.314 32.2339C123.921 31.8413 123.445 31.6449 122.886 31.6449V40.8988C122.886 42.556 123.558 43.9103 124.903 44.9618C125.801 45.654 126.833 46 127.997 46ZM150.578 46V31.6449C150.019 31.6449 149.543 31.8413 149.151 32.2339C148.985 32.407 148.851 32.6032 148.751 32.8229L148.732 32.8129L142.592 42.7956L136.443 32.8129L136.433 32.8229C136.333 32.6032 136.197 32.407 136.024 32.2339C135.631 31.8413 135.158 31.6449 134.606 31.6449V46C135.158 46 135.631 45.8036 136.024 45.411C136.416 45.0184 136.612 44.5459 136.612 43.9935V36.9358L140.964 43.9935C141.111 44.2264 141.287 44.4194 141.494 44.5725C141.826 44.8054 142.193 44.9319 142.592 44.9518C142.991 44.9319 143.354 44.8054 143.68 44.5725C143.893 44.4194 144.073 44.2264 144.219 43.9935L148.561 36.9358V43.9935C148.561 44.5459 148.758 45.0184 149.151 45.411C149.543 45.8036 150.019 46 150.578 46ZM146.176 31.7947V31.7648H146.156L146.176 31.7947ZM152.075 46C152.628 46 153.101 45.8036 153.493 45.411C153.892 45.0117 154.092 44.5358 154.092 43.9835V33.6515H159.422C160.028 33.6515 160.544 33.8677 160.97 34.3003C161.403 34.7262 161.619 35.2454 161.619 35.8577C161.619 36.4632 161.403 36.9824 160.97 37.4149C160.544 37.8409 160.028 38.0538 159.422 38.0538H157.506C156.947 38.0538 156.472 38.2501 156.079 38.6428C155.686 39.0354 155.489 39.5113 155.489 40.0703H159.422C160.588 40.0703 161.579 39.6577 162.398 38.8324C163.222 38.0072 163.636 37.0156 163.636 35.8577C163.636 34.693 163.222 33.6981 162.398 32.8728C161.572 32.0476 160.581 31.6349 159.422 31.6349H152.075V46ZM171.452 38.6927C172.004 38.6927 172.477 38.4964 172.87 38.1037C173.262 37.711 173.458 37.2352 173.458 36.6762H169.605C169.053 36.6762 168.58 36.8726 168.188 37.2652C167.795 37.6578 167.598 38.1336 167.598 38.6927H171.452ZM174.686 46H165.212H165.133V31.6449H174.686C174.686 32.1973 174.49 32.6699 174.097 33.0625C173.704 33.4551 173.232 33.6515 172.68 33.6515H167.149V43.9835H172.68C173.232 43.9835 173.704 44.1798 174.097 44.5725C174.49 44.9652 174.686 45.441 174.686 46ZM181.654 46V33.6515H176.194C176.194 33.0991 176.39 32.6266 176.782 32.2339C177.175 31.8413 177.651 31.6449 178.21 31.6449H189.131C189.131 32.1973 188.931 32.6699 188.532 33.0625C188.139 33.4551 187.667 33.6515 187.114 33.6515H183.67V43.9835C183.67 44.5426 183.474 45.0184 183.082 45.411C182.689 45.8036 182.213 46 181.654 46ZM196.947 38.6927C197.5 38.6927 197.972 38.4964 198.365 38.1037C198.757 37.711 198.954 37.2352 198.954 36.6762H195.1C194.548 36.6762 194.076 36.8726 193.683 37.2652C193.29 37.6578 193.094 38.1336 193.094 38.6927H196.947ZM200.182 46H190.708H190.628V31.6449H200.182C200.182 32.1973 199.986 32.6699 199.593 33.0625C199.2 33.4551 198.728 33.6515 198.176 33.6515H192.645V43.9835H198.176C198.728 43.9835 199.2 44.1798 199.593 44.5725C199.986 44.9652 200.182 45.441 200.182 46ZM212.261 46.01C212.081 46.01 211.815 45.96 211.462 45.8602C211.116 45.7604 210.797 45.4643 210.504 44.9718L207.759 40.0703H205.103C205.103 39.5179 205.3 39.0454 205.692 38.6528C206.085 38.2601 206.56 38.0638 207.12 38.0638H209.037C209.642 38.0638 210.158 37.8508 210.584 37.4249C211.016 36.9923 211.233 36.4699 211.233 35.8577C211.233 35.252 211.016 34.7362 210.584 34.3103C210.158 33.8777 209.642 33.6614 209.037 33.6614H203.706V43.9935C203.706 44.5459 203.506 45.0184 203.107 45.411C202.714 45.8036 202.242 46 201.69 46V31.6449H209.037C210.194 31.6449 211.186 32.0576 212.011 32.8828C212.837 33.708 213.249 34.6997 213.249 35.8577C213.249 37.0222 212.837 38.0172 212.011 38.8425C211.453 39.3948 210.781 39.7675 209.995 39.9605L213.249 45.7504C212.923 45.9235 212.593 46.01 212.261 46.01Z" fill="white"/>
<path fill-rule="evenodd" clip-rule="evenodd" d="M38.4254 22.5433C38.2448 22.5341 38.0642 22.5642 37.8961 22.6314C37.728 22.6985 37.5766 22.8013 37.4519 22.9325C37.3274 23.0636 37.2328 23.2202 37.1745 23.3914C37.1161 23.5627 37.0956 23.7444 37.1143 23.9244V43.0467H27.6732V35.2773C27.6845 34.9428 27.57 34.6161 27.3522 34.3619C27.1344 34.1075 26.8292 33.9439 26.4966 33.9034H19.6639C19.2994 33.9166 18.9527 34.0644 18.6908 34.3181C18.4291 34.5719 18.2707 34.9137 18.2463 35.2773V43.0254H8.94002V24.6113C8.94658 24.4341 8.91779 24.2573 8.85509 24.0915C8.79248 23.9256 8.69724 23.7738 8.57509 23.6452C8.45293 23.5166 8.30632 23.4136 8.14381 23.3424C7.98129 23.2711 7.80619 23.233 7.62875 23.2303C7.4483 23.2223 7.26823 23.2532 7.10074 23.3208C6.93327 23.3884 6.78229 23.4911 6.65797 23.622C6.53366 23.753 6.43893 23.909 6.3802 24.0797C6.32145 24.2504 6.30004 24.4317 6.31746 24.6113V44.5836C6.30988 44.7627 6.33785 44.9417 6.39975 45.11C6.46164 45.2783 6.55626 45.4328 6.67813 45.5645C6.8 45.6961 6.94673 45.8024 7.10987 45.8771C7.27302 45.9519 7.44937 45.9936 7.62875 46H19.6781C20.0163 45.9558 20.3251 45.785 20.5422 45.5221C20.7593 45.2592 20.8684 44.9238 20.8476 44.5836V36.6584H25.0436V44.5765C25.0577 44.9476 25.2115 45.2999 25.4744 45.5625C25.7373 45.8252 26.0897 45.9789 26.4612 45.993H38.3901C38.7432 45.9554 39.0706 45.7912 39.3118 45.5307C39.5529 45.2702 39.6913 44.9311 39.7013 44.5765V23.9244C39.707 23.7473 39.6774 23.571 39.6145 23.4056C39.5514 23.2401 39.4562 23.0888 39.3342 22.9603C39.2123 22.8319 39.066 22.7289 38.9039 22.6572C38.7419 22.5857 38.5672 22.5469 38.3901 22.5433H38.4254ZM7.61455 2.38693C7.98522 2.438 8.32065 2.63344 8.54766 2.93063C8.77476 3.2278 8.87502 3.60263 8.82655 3.97337V14.4907L22.0242 0.510105C22.1452 0.348872 22.3026 0.218594 22.4838 0.129953C22.6649 0.041314 22.8645 -0.00316294 23.0661 0.000174912C23.2296 0.0156277 23.3869 0.0699909 23.525 0.15871C23.6632 0.247431 23.778 0.367925 23.86 0.510105C31.5786 8.59817 36.9512 14.2782 45.6054 23.5773C45.8596 23.8606 46 24.2274 46 24.6078C46 24.9882 45.8596 25.355 45.6054 25.6383C45.3454 25.8481 45.0251 25.9697 44.6912 25.9853C44.3519 26.0048 44.0184 25.8903 43.7626 25.6666L23.059 3.47053L2.2278 25.3196C2.13366 25.4781 1.99983 25.6094 1.83953 25.7006C1.67922 25.7919 1.49791 25.8398 1.31343 25.8398C1.12895 25.8398 0.947643 25.7919 0.787337 25.7006C0.627028 25.6094 0.493251 25.4781 0.399114 25.3196C0.266381 25.2214 0.160453 25.0915 0.0910962 24.9417C0.0217395 24.792 -0.00881923 24.6272 0.00219508 24.4626C0.0141737 24.0831 0.154031 23.7187 0.399114 23.4286L6.39546 17.0545V3.97337C6.34706 3.60263 6.44728 3.2278 6.67432 2.93063C6.90137 2.63344 7.23679 2.438 7.60746 2.38693H7.61455Z" fill="white"/>
<path d="M213.389 23.8519H44.7221C44.0164 23.8519 43.4443 24.4239 43.4443 25.1296C43.4443 25.8353 44.0164 26.4074 44.7221 26.4074H213.389C214.095 26.4074 214.667 25.8353 214.667 25.1296C214.667 24.4239 214.095 23.8519 213.389 23.8519Z" fill="white"/>
</svg>
